<mxfile host="Electron" modified="2023-10-04T06:44:40.755Z" agent="Mozilla/5.0 (Macintosh; Intel Mac OS X 10_15_7) AppleWebKit/537.36 (KHTML, like Gecko) draw.io/22.0.0 Chrome/114.0.5735.289 Electron/25.8.3 Safari/537.36" etag="841GY1lSt_THEmFGsWF6" version="22.0.0" type="device">
  <diagram name="Page-1" id="RcsFwqiE_mqMil7ZwmxQ">
    <mxGraphModel dx="1010" dy="732" grid="1" gridSize="10" guides="1" tooltips="1" connect="1" arrows="1" fold="1" page="1" pageScale="1" pageWidth="827" pageHeight="1169" background="none" math="0" shadow="1">
      <root>
        <mxCell id="0" />
        <mxCell id="1" parent="0" />
        <mxCell id="9jFAXQZW3_Cc163_eQy1-69" value="" style="rounded=1;whiteSpace=wrap;html=1;fillColor=#dae8fc;gradientColor=#7ea6e0;strokeColor=#6c8ebf;sketch=1;curveFitting=1;jiggle=2;" vertex="1" parent="1">
          <mxGeometry x="930" y="90" width="300" height="100" as="geometry" />
        </mxCell>
        <mxCell id="9jFAXQZW3_Cc163_eQy1-49" value="" style="rounded=1;whiteSpace=wrap;html=1;fillColor=#dae8fc;gradientColor=#7ea6e0;strokeColor=#6c8ebf;sketch=1;curveFitting=1;jiggle=2;" vertex="1" parent="1">
          <mxGeometry x="940" y="380" width="360" height="80" as="geometry" />
        </mxCell>
        <mxCell id="9jFAXQZW3_Cc163_eQy1-42" style="edgeStyle=orthogonalEdgeStyle;rounded=0;orthogonalLoop=1;jettySize=auto;html=1;entryX=0;entryY=0.5;entryDx=0;entryDy=0;fillColor=#d5e8d4;gradientColor=#97d077;strokeColor=#82b366;strokeWidth=2;" edge="1" parent="1" source="9jFAXQZW3_Cc163_eQy1-38" target="9jFAXQZW3_Cc163_eQy1-41">
          <mxGeometry relative="1" as="geometry" />
        </mxCell>
        <mxCell id="9jFAXQZW3_Cc163_eQy1-38" value="Request &lt;br&gt;Arrive" style="shape=umlBoundary;whiteSpace=wrap;html=1;rotation=0;horizontal=1;fillColor=#dae8fc;gradientColor=#7ea6e0;strokeColor=#6c8ebf;" vertex="1" parent="1">
          <mxGeometry x="790" y="290" width="60" height="50" as="geometry" />
        </mxCell>
        <mxCell id="9jFAXQZW3_Cc163_eQy1-44" value="" style="edgeStyle=orthogonalEdgeStyle;rounded=0;orthogonalLoop=1;jettySize=auto;html=1;fillColor=#d5e8d4;gradientColor=#97d077;strokeColor=#82b366;strokeWidth=2;" edge="1" parent="1" source="9jFAXQZW3_Cc163_eQy1-41" target="9jFAXQZW3_Cc163_eQy1-43">
          <mxGeometry relative="1" as="geometry" />
        </mxCell>
        <mxCell id="9jFAXQZW3_Cc163_eQy1-75" style="edgeStyle=orthogonalEdgeStyle;rounded=0;orthogonalLoop=1;jettySize=auto;html=1;exitX=1;exitY=0.5;exitDx=0;exitDy=0;entryX=1;entryY=0.75;entryDx=0;entryDy=0;fillColor=#f8cecc;gradientColor=#ea6b66;strokeColor=#b85450;strokeWidth=2;" edge="1" parent="1" source="9jFAXQZW3_Cc163_eQy1-41" target="9jFAXQZW3_Cc163_eQy1-71">
          <mxGeometry relative="1" as="geometry">
            <mxPoint x="1050" y="40" as="targetPoint" />
            <Array as="points">
              <mxPoint x="1420" y="315" />
              <mxPoint x="1420" y="40" />
            </Array>
          </mxGeometry>
        </mxCell>
        <mxCell id="9jFAXQZW3_Cc163_eQy1-41" value="is valid request" style="rhombus;whiteSpace=wrap;html=1;fillColor=#d5e8d4;strokeColor=#82b366;sketch=1;curveFitting=1;jiggle=2;gradientColor=#97d077;" vertex="1" parent="1">
          <mxGeometry x="960" y="275" width="80" height="80" as="geometry" />
        </mxCell>
        <mxCell id="9jFAXQZW3_Cc163_eQy1-46" value="" style="edgeStyle=orthogonalEdgeStyle;rounded=0;orthogonalLoop=1;jettySize=auto;html=1;fillColor=#d5e8d4;gradientColor=#97d077;strokeColor=#82b366;strokeWidth=2;" edge="1" parent="1" source="9jFAXQZW3_Cc163_eQy1-43" target="9jFAXQZW3_Cc163_eQy1-45">
          <mxGeometry relative="1" as="geometry" />
        </mxCell>
        <mxCell id="9jFAXQZW3_Cc163_eQy1-43" value="Add OCSP response" style="whiteSpace=wrap;html=1;fillColor=#d5e8d4;strokeColor=#82b366;sketch=1;curveFitting=1;jiggle=2;gradientColor=#97d077;aspect=fixed;" vertex="1" parent="1">
          <mxGeometry x="960" y="410" width="80" height="40" as="geometry" />
        </mxCell>
        <mxCell id="9jFAXQZW3_Cc163_eQy1-48" style="edgeStyle=orthogonalEdgeStyle;rounded=0;orthogonalLoop=1;jettySize=auto;html=1;entryX=0;entryY=0.5;entryDx=0;entryDy=0;fillColor=#d5e8d4;gradientColor=#97d077;strokeColor=#82b366;strokeWidth=2;" edge="1" parent="1" source="9jFAXQZW3_Cc163_eQy1-45" target="9jFAXQZW3_Cc163_eQy1-47">
          <mxGeometry relative="1" as="geometry" />
        </mxCell>
        <mxCell id="9jFAXQZW3_Cc163_eQy1-45" value="Prepare Message" style="whiteSpace=wrap;html=1;fillColor=#d5e8d4;strokeColor=#82b366;sketch=1;curveFitting=1;jiggle=2;gradientColor=#97d077;aspect=fixed;" vertex="1" parent="1">
          <mxGeometry x="1080" y="410" width="80" height="40" as="geometry" />
        </mxCell>
        <mxCell id="9jFAXQZW3_Cc163_eQy1-52" style="edgeStyle=orthogonalEdgeStyle;rounded=0;orthogonalLoop=1;jettySize=auto;html=1;entryX=0.5;entryY=1;entryDx=0;entryDy=0;fillColor=#d5e8d4;gradientColor=#97d077;strokeColor=#82b366;strokeWidth=2;" edge="1" parent="1" source="9jFAXQZW3_Cc163_eQy1-47" target="9jFAXQZW3_Cc163_eQy1-51">
          <mxGeometry relative="1" as="geometry" />
        </mxCell>
        <mxCell id="9jFAXQZW3_Cc163_eQy1-53" value="Read Message" style="edgeLabel;html=1;align=center;verticalAlign=middle;resizable=0;points=[];labelBackgroundColor=none;" vertex="1" connectable="0" parent="9jFAXQZW3_Cc163_eQy1-52">
          <mxGeometry x="0.2036" y="2" relative="1" as="geometry">
            <mxPoint x="2" y="-32" as="offset" />
          </mxGeometry>
        </mxCell>
        <mxCell id="9jFAXQZW3_Cc163_eQy1-47" value="Send Signature" style="whiteSpace=wrap;html=1;fillColor=#d5e8d4;strokeColor=#82b366;sketch=1;curveFitting=1;jiggle=2;gradientColor=#97d077;aspect=fixed;" vertex="1" parent="1">
          <mxGeometry x="1200.5" y="410" width="80" height="40" as="geometry" />
        </mxCell>
        <mxCell id="9jFAXQZW3_Cc163_eQy1-50" value="System Request" style="text;html=1;strokeColor=none;fillColor=none;align=center;verticalAlign=middle;whiteSpace=wrap;rounded=0;" vertex="1" parent="1">
          <mxGeometry x="1070" y="380" width="100" height="30" as="geometry" />
        </mxCell>
        <mxCell id="9jFAXQZW3_Cc163_eQy1-55" style="edgeStyle=orthogonalEdgeStyle;rounded=0;orthogonalLoop=1;jettySize=auto;html=1;entryX=1;entryY=0.5;entryDx=0;entryDy=0;fillColor=#d5e8d4;gradientColor=#97d077;strokeColor=#82b366;strokeWidth=2;" edge="1" parent="1" source="9jFAXQZW3_Cc163_eQy1-51" target="9jFAXQZW3_Cc163_eQy1-54">
          <mxGeometry relative="1" as="geometry">
            <Array as="points" />
          </mxGeometry>
        </mxCell>
        <mxCell id="9jFAXQZW3_Cc163_eQy1-56" value="Parse Message" style="edgeLabel;html=1;align=center;verticalAlign=middle;resizable=0;points=[];labelBackgroundColor=none;" vertex="1" connectable="0" parent="9jFAXQZW3_Cc163_eQy1-55">
          <mxGeometry x="-0.175" y="1" relative="1" as="geometry">
            <mxPoint x="9" y="9" as="offset" />
          </mxGeometry>
        </mxCell>
        <mxCell id="9jFAXQZW3_Cc163_eQy1-74" style="edgeStyle=orthogonalEdgeStyle;rounded=0;orthogonalLoop=1;jettySize=auto;html=1;entryX=1;entryY=1;entryDx=0;entryDy=0;fillColor=#f8cecc;gradientColor=#ea6b66;strokeColor=#b85450;strokeWidth=2;" edge="1" parent="1" source="9jFAXQZW3_Cc163_eQy1-51" target="9jFAXQZW3_Cc163_eQy1-71">
          <mxGeometry relative="1" as="geometry">
            <Array as="points">
              <mxPoint x="1350" y="70" />
              <mxPoint x="1040" y="70" />
            </Array>
          </mxGeometry>
        </mxCell>
        <mxCell id="9jFAXQZW3_Cc163_eQy1-51" value="is content&lt;br&gt;type ok" style="rhombus;whiteSpace=wrap;html=1;fillColor=#d5e8d4;strokeColor=#82b366;sketch=1;curveFitting=1;jiggle=2;gradientColor=#97d077;" vertex="1" parent="1">
          <mxGeometry x="1310" y="100" width="80" height="80" as="geometry" />
        </mxCell>
        <mxCell id="9jFAXQZW3_Cc163_eQy1-58" style="edgeStyle=orthogonalEdgeStyle;rounded=0;orthogonalLoop=1;jettySize=auto;html=1;entryX=1;entryY=0.5;entryDx=0;entryDy=0;fillColor=#d5e8d4;gradientColor=#97d077;strokeColor=#82b366;strokeWidth=2;" edge="1" parent="1" source="9jFAXQZW3_Cc163_eQy1-54" target="9jFAXQZW3_Cc163_eQy1-57">
          <mxGeometry relative="1" as="geometry" />
        </mxCell>
        <mxCell id="9jFAXQZW3_Cc163_eQy1-59" value="Read message" style="edgeLabel;html=1;align=center;verticalAlign=middle;resizable=0;points=[];labelBackgroundColor=none;" vertex="1" connectable="0" parent="9jFAXQZW3_Cc163_eQy1-58">
          <mxGeometry x="0.0222" relative="1" as="geometry">
            <mxPoint x="7" y="10" as="offset" />
          </mxGeometry>
        </mxCell>
        <mxCell id="9jFAXQZW3_Cc163_eQy1-73" style="edgeStyle=orthogonalEdgeStyle;rounded=0;orthogonalLoop=1;jettySize=auto;html=1;entryX=0.75;entryY=1;entryDx=0;entryDy=0;fillColor=#f8cecc;gradientColor=#ea6b66;strokeColor=#b85450;strokeWidth=2;" edge="1" parent="1" source="9jFAXQZW3_Cc163_eQy1-54" target="9jFAXQZW3_Cc163_eQy1-71">
          <mxGeometry relative="1" as="geometry">
            <Array as="points">
              <mxPoint x="1161" y="80" />
              <mxPoint x="1020" y="80" />
            </Array>
          </mxGeometry>
        </mxCell>
        <mxCell id="9jFAXQZW3_Cc163_eQy1-54" value="is parse ok" style="rhombus;whiteSpace=wrap;html=1;fillColor=#d5e8d4;strokeColor=#82b366;sketch=1;curveFitting=1;jiggle=2;gradientColor=#97d077;" vertex="1" parent="1">
          <mxGeometry x="1120.5" y="100" width="80" height="80" as="geometry" />
        </mxCell>
        <mxCell id="9jFAXQZW3_Cc163_eQy1-72" style="edgeStyle=orthogonalEdgeStyle;rounded=0;orthogonalLoop=1;jettySize=auto;html=1;entryX=0.5;entryY=1;entryDx=0;entryDy=0;fillColor=#f8cecc;gradientColor=#ea6b66;strokeColor=#b85450;strokeWidth=2;" edge="1" parent="1" source="9jFAXQZW3_Cc163_eQy1-57" target="9jFAXQZW3_Cc163_eQy1-71">
          <mxGeometry relative="1" as="geometry" />
        </mxCell>
        <mxCell id="9jFAXQZW3_Cc163_eQy1-57" value="Is signature Valid" style="rhombus;whiteSpace=wrap;html=1;fillColor=#d5e8d4;strokeColor=#82b366;sketch=1;curveFitting=1;jiggle=2;gradientColor=#97d077;" vertex="1" parent="1">
          <mxGeometry x="960" y="100" width="80" height="80" as="geometry" />
        </mxCell>
        <mxCell id="9jFAXQZW3_Cc163_eQy1-60" value="Yes" style="text;html=1;strokeColor=none;fillColor=none;align=center;verticalAlign=middle;whiteSpace=wrap;rounded=0;" vertex="1" parent="1">
          <mxGeometry x="970" y="360" width="30" height="10" as="geometry" />
        </mxCell>
        <mxCell id="9jFAXQZW3_Cc163_eQy1-61" value="Yes" style="text;html=1;strokeColor=none;fillColor=none;align=center;verticalAlign=middle;whiteSpace=wrap;rounded=0;" vertex="1" parent="1">
          <mxGeometry x="1290" y="120" width="30" height="10" as="geometry" />
        </mxCell>
        <mxCell id="9jFAXQZW3_Cc163_eQy1-62" value="Yes" style="text;html=1;strokeColor=none;fillColor=none;align=center;verticalAlign=middle;whiteSpace=wrap;rounded=0;" vertex="1" parent="1">
          <mxGeometry x="1090.5" y="120" width="30" height="10" as="geometry" />
        </mxCell>
        <mxCell id="9jFAXQZW3_Cc163_eQy1-63" value="Yes" style="text;html=1;strokeColor=none;fillColor=none;align=center;verticalAlign=middle;whiteSpace=wrap;rounded=0;" vertex="1" parent="1">
          <mxGeometry x="940" y="120" width="30" height="10" as="geometry" />
        </mxCell>
        <mxCell id="9jFAXQZW3_Cc163_eQy1-64" value="Send Response" style="shape=umlBoundary;whiteSpace=wrap;html=1;rotation=0;horizontal=1;fillColor=#dae8fc;gradientColor=#7ea6e0;strokeColor=#6c8ebf;flipV=1;flipH=1;" vertex="1" parent="1">
          <mxGeometry x="790" y="115" width="60" height="50" as="geometry" />
        </mxCell>
        <mxCell id="9jFAXQZW3_Cc163_eQy1-65" style="edgeStyle=orthogonalEdgeStyle;rounded=0;orthogonalLoop=1;jettySize=auto;html=1;entryX=0;entryY=0.5;entryDx=0;entryDy=0;entryPerimeter=0;fillColor=#d5e8d4;gradientColor=#97d077;strokeColor=#82b366;strokeWidth=2;" edge="1" parent="1" source="9jFAXQZW3_Cc163_eQy1-57" target="9jFAXQZW3_Cc163_eQy1-64">
          <mxGeometry relative="1" as="geometry" />
        </mxCell>
        <mxCell id="9jFAXQZW3_Cc163_eQy1-68" value="success &lt;br&gt;response" style="edgeLabel;html=1;align=center;verticalAlign=middle;resizable=0;points=[];labelBackgroundColor=none;" vertex="1" connectable="0" parent="9jFAXQZW3_Cc163_eQy1-65">
          <mxGeometry x="0.2055" y="1" relative="1" as="geometry">
            <mxPoint x="7" y="16" as="offset" />
          </mxGeometry>
        </mxCell>
        <mxCell id="9jFAXQZW3_Cc163_eQy1-71" value="Prepare Fail Response" style="whiteSpace=wrap;html=1;fillColor=#d5e8d4;strokeColor=#82b366;sketch=1;curveFitting=1;jiggle=2;gradientColor=#97d077;aspect=fixed;" vertex="1" parent="1">
          <mxGeometry x="960" y="10" width="80" height="40" as="geometry" />
        </mxCell>
        <mxCell id="9jFAXQZW3_Cc163_eQy1-76" style="edgeStyle=orthogonalEdgeStyle;rounded=0;orthogonalLoop=1;jettySize=auto;html=1;entryX=-0.017;entryY=0.5;entryDx=0;entryDy=0;entryPerimeter=0;fillColor=#f8cecc;gradientColor=#ea6b66;strokeColor=#b85450;strokeWidth=2;" edge="1" parent="1" source="9jFAXQZW3_Cc163_eQy1-71" target="9jFAXQZW3_Cc163_eQy1-64">
          <mxGeometry relative="1" as="geometry" />
        </mxCell>
        <mxCell id="9jFAXQZW3_Cc163_eQy1-77" value="No" style="text;html=1;strokeColor=none;fillColor=none;align=center;verticalAlign=middle;whiteSpace=wrap;rounded=0;" vertex="1" parent="1">
          <mxGeometry x="1040" y="300" width="30" height="10" as="geometry" />
        </mxCell>
        <mxCell id="9jFAXQZW3_Cc163_eQy1-78" value="No" style="text;html=1;strokeColor=none;fillColor=none;align=center;verticalAlign=middle;whiteSpace=wrap;rounded=0;" vertex="1" parent="1">
          <mxGeometry x="1350" y="90" width="30" height="10" as="geometry" />
        </mxCell>
        <mxCell id="9jFAXQZW3_Cc163_eQy1-79" value="No" style="text;html=1;strokeColor=none;fillColor=none;align=center;verticalAlign=middle;whiteSpace=wrap;rounded=0;" vertex="1" parent="1">
          <mxGeometry x="1160" y="100" width="30" height="10" as="geometry" />
        </mxCell>
        <mxCell id="9jFAXQZW3_Cc163_eQy1-80" value="No" style="text;html=1;strokeColor=none;fillColor=none;align=center;verticalAlign=middle;whiteSpace=wrap;rounded=0;" vertex="1" parent="1">
          <mxGeometry x="1010" y="100" width="30" height="10" as="geometry" />
        </mxCell>
      </root>
    </mxGraphModel>
  </diagram>
</mxfile>
